<?xml version="1.0" encoding="utf-8"?>
<!-- Generator: Adobe Illustrator 20.0.0, SVG Export Plug-In . SVG Version: 6.00 Build 0)  -->
<!DOCTYPE svg PUBLIC "-//W3C//DTD SVG 1.1//EN" "http://www.w3.org/Graphics/SVG/1.1/DTD/svg11.dtd">
<svg version="1.1" id="Layer_1" xmlns="http://www.w3.org/2000/svg" xmlns:xlink="http://www.w3.org/1999/xlink" x="0px" y="0px"
	 width="100%" height="100%" viewBox="0 0 1428.36829 735" style="enable-background:new 0 0 1428.36829 735;"
	 xml:space="preserve" preserveAspectRatio="none">
<style type="text/css">
	.st0{fill:url(#SVGID_1_);}
	.st1{opacity:0.03;clip-path:url(#SVGID_3_);fill:url(#SVGID_4_);enable-background:new    ;}
	.st2{opacity:0.04;clip-path:url(#SVGID_6_);fill:#FFFFFF;enable-background:new    ;}
	.st3{opacity:0.04;clip-path:url(#SVGID_8_);fill:url(#SVGID_9_);enable-background:new    ;}
	.st4{opacity:0.02;clip-path:url(#SVGID_11_);fill:url(#SVGID_12_);enable-background:new    ;}
	.st5{opacity:0.04;clip-path:url(#SVGID_14_);fill:url(#SVGID_15_);enable-background:new    ;}
	.st6{opacity:0.03;clip-path:url(#SVGID_17_);fill:url(#SVGID_18_);enable-background:new    ;}
	.st7{opacity:0.02;clip-path:url(#SVGID_20_);fill:#FFFFFF;enable-background:new    ;}
	.st8{opacity:0.04;clip-path:url(#SVGID_22_);fill:url(#SVGID_23_);enable-background:new    ;}
	.st9{display:none;}
	.st10{display:inline;}
	.st11{fill:none;}
	.st12{fill:#FFFFFF;}
	.st13{font-family:'OpenSans';}
	.st14{font-size:12px;}
	.st15{opacity:0.85;fill:#408BFC;enable-background:new    ;}
	.st16{opacity:0.9;fill:none;stroke:#FFFFFF;stroke-miterlimit:10;enable-background:new    ;}
	.st17{opacity:0.9;}
	.st18{opacity:0.85;fill:#FFFFFF;enable-background:new    ;}
	.st19{fill:#333333;}
	.st20{font-family:'OpenSans-Semibold';}
	.st21{font-size:13px;}
	.st22{opacity:0.5;fill:#FFFFFF;enable-background:new    ;}
	.st23{display:inline;opacity:0.46;fill:#FFFFFF;enable-background:new    ;}
	.st24{font-family:'MyriadPro-Regular';}
</style>
<g id="Layer_2">
</g>
<g id="Layer_1_1_">

		<radialGradient id="SVGID_1_" cx="707.93024" cy="360.27493" r="1202.83252" gradientTransform="matrix(1.0022 0 0 -1.00271 -4.68151 729.11749)" gradientUnits="userSpaceOnUse">
		<stop  offset="0.00069" style="stop-color:#004B6D"/>
		<stop  offset="0.21486" style="stop-color:#063657"/>
		<stop  offset="0.48826" style="stop-color:#0C2241"/>
		<stop  offset="0.75375" style="stop-color:#101634"/>
		<stop  offset="1" style="stop-color:#111230"/>
	</radialGradient>
	<rect x="-1.40184" y="-4.27898" class="st0" width="1430.44788" height="741.27893"/>
	<g>
		<g>
			<defs>
				<rect id="SVGID_2_" x="-4.33934" y="-4.27898" width="1433.65393" height="739.27893"/>
			</defs>
			<clipPath id="SVGID_3_">
				<use xlink:href="#SVGID_2_"  style="overflow:visible;"/>
			</clipPath>

				<linearGradient id="SVGID_4_" gradientUnits="userSpaceOnUse" x1="871.58679" y1="653.45258" x2="1135.58679" y2="908.45258" gradientTransform="matrix(1 0 0 -1 0 730.10559)">
				<stop  offset="0.00069" style="stop-color:#FFFFFF"/>
				<stop  offset="0.08714" style="stop-color:#F7F7F7;stop-opacity:0.91349"/>
				<stop  offset="0.2178" style="stop-color:#E3E3E3;stop-opacity:0.78274"/>
				<stop  offset="0.3765" style="stop-color:#C1C1C1;stop-opacity:0.62393"/>
				<stop  offset="0.5572" style="stop-color:#919191;stop-opacity:0.44311"/>
				<stop  offset="0.75633" style="stop-color:#545454;stop-opacity:0.24384"/>
				<stop  offset="0.96808" style="stop-color:#0C0C0C;stop-opacity:0.03195"/>
				<stop  offset="1" style="stop-color:#000000;stop-opacity:0"/>
			</linearGradient>
			<polygon class="st1" points="1143.00342,419.63766 537.85498,-185.51076 1143.00342,-790.65918 1748.15186,-185.51076 			"/>
		</g>
		<g>
			<defs>

					<rect id="SVGID_5_" x="133.4227" y="-1100.08484" transform="matrix(0.70711 -0.70711 0.70711 0.70711 418.34595 243.46716)" width="739.28229" height="1433.6604"/>
			</defs>
			<clipPath id="SVGID_6_">
				<use xlink:href="#SVGID_5_"  style="overflow:visible;"/>
			</clipPath>

				<rect x="1083.53687" y="-689.64948" transform="matrix(0.70711 -0.70711 0.70711 0.70711 627.77173 992.08911)" class="st2" width="855.81305" height="855.81299"/>
		</g>
		<g>
			<defs>
				<rect id="SVGID_7_" x="-4.33934" y="-4.27898" width="1433.65393" height="739.27893"/>
			</defs>
			<clipPath id="SVGID_8_">
				<use xlink:href="#SVGID_7_"  style="overflow:visible;"/>
			</clipPath>

				<linearGradient id="SVGID_9_" gradientUnits="userSpaceOnUse" x1="894.32568" y1="69.9781" x2="-280.11563" y2="510.95593" gradientTransform="matrix(1 0 0 -1 0 730.10559)">
				<stop  offset="0.00069" style="stop-color:#FFFFFF"/>
				<stop  offset="0.08714" style="stop-color:#F7F7F7;stop-opacity:0.91349"/>
				<stop  offset="0.2178" style="stop-color:#E3E3E3;stop-opacity:0.78274"/>
				<stop  offset="0.3765" style="stop-color:#C1C1C1;stop-opacity:0.62393"/>
				<stop  offset="0.5572" style="stop-color:#919191;stop-opacity:0.44311"/>
				<stop  offset="0.75633" style="stop-color:#545454;stop-opacity:0.24384"/>
				<stop  offset="0.96808" style="stop-color:#0C0C0C;stop-opacity:0.03195"/>
				<stop  offset="1" style="stop-color:#000000;stop-opacity:0"/>
			</linearGradient>
			<polygon class="st3" points="429.30569,1133.71362 -313.68542,390.7225 291.46301,-214.42592 1034.4541,528.56519 			"/>
		</g>
		<g>
			<defs>
				<rect id="SVGID_10_" x="-4.33934" y="-36.33178" width="1433.65393" height="771.33173"/>
			</defs>
			<clipPath id="SVGID_11_">
				<use xlink:href="#SVGID_10_"  style="overflow:visible;"/>
			</clipPath>

				<linearGradient id="SVGID_12_" gradientUnits="userSpaceOnUse" x1="1312.8739" y1="308.42072" x2="145.93214" y2="305.42078" gradientTransform="matrix(1 0 0 -1 0 730.10559)">
				<stop  offset="0.00069" style="stop-color:#FFFFFF"/>
				<stop  offset="0.08714" style="stop-color:#F7F7F7;stop-opacity:0.91349"/>
				<stop  offset="0.2178" style="stop-color:#E3E3E3;stop-opacity:0.78274"/>
				<stop  offset="0.3765" style="stop-color:#C1C1C1;stop-opacity:0.62393"/>
				<stop  offset="0.5572" style="stop-color:#919191;stop-opacity:0.44311"/>
				<stop  offset="0.75633" style="stop-color:#545454;stop-opacity:0.24384"/>
				<stop  offset="0.96808" style="stop-color:#0C0C0C;stop-opacity:0.03195"/>
				<stop  offset="1" style="stop-color:#000000;stop-opacity:0"/>
			</linearGradient>
			<polygon class="st4" points="753.38116,1054.4823 148.23273,423.09647 753.38116,-208.28931 1358.52954,423.09647 			"/>
		</g>
		<g>
			<defs>
				<rect id="SVGID_13_" x="-4.33934" y="-4.27898" width="1433.65393" height="739.27893"/>
			</defs>
			<clipPath id="SVGID_14_">
				<use xlink:href="#SVGID_13_"  style="overflow:visible;"/>
			</clipPath>

				<linearGradient id="SVGID_15_" gradientUnits="userSpaceOnUse" x1="142.63498" y1="636.09558" x2="-43.35572" y2="772.58875" gradientTransform="matrix(1 0 0 -1 0 730.10559)">
				<stop  offset="0.00069" style="stop-color:#FFFFFF"/>
				<stop  offset="0.08714" style="stop-color:#F7F7F7;stop-opacity:0.91349"/>
				<stop  offset="0.2178" style="stop-color:#E3E3E3;stop-opacity:0.78274"/>
				<stop  offset="0.3765" style="stop-color:#C1C1C1;stop-opacity:0.62393"/>
				<stop  offset="0.5572" style="stop-color:#919191;stop-opacity:0.44311"/>
				<stop  offset="0.75633" style="stop-color:#545454;stop-opacity:0.24384"/>
				<stop  offset="0.96808" style="stop-color:#0C0C0C;stop-opacity:0.03195"/>
				<stop  offset="1" style="stop-color:#000000;stop-opacity:0"/>
			</linearGradient>
			<polygon class="st5" points="-166.61884,472.20609 -771.76727,-132.94235 -166.61884,-738.09082 438.5296,-132.94235 			"/>
		</g>
		<g>
			<defs>
				<rect id="SVGID_16_" x="-4.33934" y="-4.27898" width="1433.65393" height="739.27893"/>
			</defs>
			<clipPath id="SVGID_17_">
				<use xlink:href="#SVGID_16_"  style="overflow:visible;"/>
			</clipPath>

				<linearGradient id="SVGID_18_" gradientUnits="userSpaceOnUse" x1="370.83536" y1="345.55124" x2="-352.28403" y2="345.55124" gradientTransform="matrix(1 0 0 -1 0 730.10559)">
				<stop  offset="0.00069" style="stop-color:#FFFFFF"/>
				<stop  offset="0.07278" style="stop-color:#F7FCF8"/>
				<stop  offset="0.18175" style="stop-color:#E3F4E5"/>
				<stop  offset="0.31405" style="stop-color:#C1E8C6"/>
				<stop  offset="0.46462" style="stop-color:#91D69B"/>
				<stop  offset="0.62843" style="stop-color:#55C064"/>
				<stop  offset="0.7" style="stop-color:#39B54A"/>
			</linearGradient>
			<polygon class="st6" points="-126.61884,989.70276 -731.76727,384.55435 -126.61884,-220.59409 478.5296,384.55435 			"/>
		</g>
		<g>
			<defs>

					<rect id="SVGID_19_" x="1084.76843" y="-673.77026" transform="matrix(0.70711 -0.70711 0.70711 0.70711 395.53873 1041.03479)" width="739.28229" height="1433.6604"/>
			</defs>
			<clipPath id="SVGID_20_">
				<use xlink:href="#SVGID_19_"  style="overflow:visible;"/>
			</clipPath>

				<rect x="1044.59802" y="671.88794" transform="matrix(0.70711 -0.70711 0.70711 0.70711 -346.38547 1363.34033)" class="st7" width="855.81311" height="855.81299"/>
		</g>
		<g>
			<defs>
				<rect id="SVGID_21_" x="-4.33934" y="-4.27898" width="1433.65393" height="739.27893"/>
			</defs>
			<clipPath id="SVGID_22_">
				<use xlink:href="#SVGID_21_"  style="overflow:visible;"/>
			</clipPath>

				<linearGradient id="SVGID_23_" gradientUnits="userSpaceOnUse" x1="592.23419" y1="-315.00546" x2="-300.47208" y2="20.18709" gradientTransform="matrix(1 0 0 -1 0 730.10559)">
				<stop  offset="0.00069" style="stop-color:#FFFFFF"/>
				<stop  offset="0.08714" style="stop-color:#F7F7F7;stop-opacity:0.91349"/>
				<stop  offset="0.2178" style="stop-color:#E3E3E3;stop-opacity:0.78274"/>
				<stop  offset="0.3765" style="stop-color:#C1C1C1;stop-opacity:0.62393"/>
				<stop  offset="0.5572" style="stop-color:#919191;stop-opacity:0.44311"/>
				<stop  offset="0.75633" style="stop-color:#545454;stop-opacity:0.24384"/>
				<stop  offset="0.96808" style="stop-color:#0C0C0C;stop-opacity:0.03195"/>
				<stop  offset="1" style="stop-color:#000000;stop-opacity:0"/>
			</linearGradient>
			<polygon class="st8" points="238.76714,1405.08911 -325.98892,840.33313 133.99135,380.35284 698.74744,945.10889 			"/>
		</g>
	</g>
</g>
<g id="Layer_3" class="st9">
	<g class="st10">
		<rect x="598.76746" y="421.36755" class="st11" width="161.66669" height="28.66666"/>
		<text transform="matrix(1 0 0 1 598.76697 430.48792)" class="st12 st13 st14">Remember me</text>
		<rect x="581.46661" y="519.36755" class="st11" width="265.8443" height="21.33331"/>
		<text transform="matrix(1 0 0 1 667.8269 528.48792)" class="st15 st13 st14">Forgot Passward</text>
		<rect x="581.46661" y="702.36755" class="st11" width="265.8443" height="21.33331"/>
		<path class="st16" d="M588.76746,431.53424h-6.5c-1.09998,0-2-0.90002-2-2v-6.5c0-1.10001,0.90002-2,2-2h6.5
			c1.10004,0,2,0.89999,2,2v6.5C590.76746,430.63422,589.86749,431.53424,588.76746,431.53424z"/>
		<g>
			<g class="st17">
				<path class="st12" d="M846.76746,258.86755c0.55139,0,1,0.44861,1,1v36c0,0.55139-0.44861,1-1,1H581.43408
					c-0.55139,0-1-0.44861-1-1v-36c0-0.55139,0.44861-1,1-1H846.76746 M846.76746,257.86755H581.43408c-1.09998,0-2,0.89999-2,2v36
					c0,1.10001,0.90002,2,2,2h265.33337c1.10004,0,2-0.89999,2-2v-36C848.76746,258.76755,847.86749,257.86755,846.76746,257.86755
					L846.76746,257.86755z"/>
			</g>
			<g class="st17">
				<path class="st12" d="M846.93414,312.2009c0.55139,0,1,0.44861,1,1v36c0,0.55139-0.44861,1-1,1H581.60083
					c-0.55139,0-1-0.44861-1-1v-36c0-0.55139,0.44861-1,1-1H846.93414 M846.93414,311.2009H581.60083c-1.10004,0-2,0.89999-2,2v36
					c0,1.09998,0.89996,2,2,2h265.33331c1.09998,0,2-0.90002,2-2v-36C848.93414,312.10089,848.03412,311.2009,846.93414,311.2009
					L846.93414,311.2009z"/>
			</g>
			<g class="st17">
				<path class="st12" d="M846.76746,365.2009c0.55139,0,1,0.44861,1,1v36c0,0.55139-0.44861,1-1,1H581.43408
					c-0.55139,0-1-0.44861-1-1v-36c0-0.55139,0.44861-1,1-1H846.76746 M846.76746,364.2009H581.43408c-1.09998,0-2,0.89999-2,2v36
					c0,1.09998,0.90002,2,2,2h265.33337c1.10004,0,2-0.90002,2-2v-36C848.76746,365.10089,847.86749,364.2009,846.76746,364.2009
					L846.76746,364.2009z"/>
			</g>
			<path class="st18" d="M846.76746,504.86755H581.43414c-1.10004,0-2-0.89999-2-2v-36c0-1.10001,0.89996-2,2-2h265.33331
				c1.10004,0,2,0.89999,2,2v36C848.76746,503.96756,847.86749,504.86755,846.76746,504.86755z"/>
			<rect x="579.60083" y="479.86755" class="st11" width="268.66663" height="50.5"/>
			<text transform="matrix(1 0 0 1 696.88757 489.74744)" class="st19 st20 st21">Login</text>
		</g>
		<rect x="598.43414" y="273.36755" class="st11" width="202.66669" height="42"/>
		<text transform="matrix(1 0 0 1 598.43347 283.24744)" class="st22 st20 st21">Account</text>
		<rect x="598.43414" y="327.36755" class="st11" width="202.66669" height="42"/>
		<text transform="matrix(1 0 0 1 598.43347 337.24744)" class="st22 st20 st21">User Name</text>
		<rect x="598.43414" y="379.7009" class="st11" width="202.66669" height="42"/>
		<text transform="matrix(1 0 0 1 598.43347 389.58069)" class="st22 st20 st21">Password</text>
		<g>
			<path class="st12" d="M599.91754,202.95772h-13.18701l-1.50073,3.32315c-0.16724,0.38144-0.92383,2.11487-1.05432,2.41251
				c-0.13104,0.29762-0.30396,0.69695-0.51825,1.19682h-2.93011c0.19019-0.30922,0.45844-0.79234,0.80377-1.44727
				c0.34534-0.65503,1.7926-3.52551,2.12634-4.18153c0.33325-0.65504,9.75586-20.2798,9.75586-20.2798l8.9342,18.76118
				c0.23785,0.50098,2.65619,5.3669,2.96588,5.95059c0.30957,0.58368,0.53601,0.98201,0.67908,1.19682h-3.10895
				c-0.26251-0.71469-0.52454-1.3876-0.78595-2.01949c-0.26251-0.63089-0.51306-1.21986-0.75092-1.76904L599.91754,202.95772z
				 M587.58832,201.09956h11.50708l-5.75354-12.47229L587.58832,201.09956z"/>
			<path class="st12" d="M750.03021,204.34236c0.33374,0.65616,2.73999,5.3197,2.93011,5.6288h-2.05658l-8.02429-10.93704
				l-2.56946-1.73996l-2.56958,1.73996l-8.02429,10.93704h-2.05652c0.19012-0.3091,2.59637-4.97264,2.93024-5.6288
				c0.33325-0.65492,9.72015-20.2798,9.72015-20.2798L750.03021,204.34236z"/>
			<path class="st12" d="M608.7002,192.02179c0-0.49988-0.00635-1.08357-0.01776-1.7502
				c-0.01257-0.66748-0.02417-1.34039-0.03625-2.01947c-0.01196-0.67908,0.02045-3.01923-0.00311-3.37714h7.76416
				c4.11823,0,7.25848,2.56015,7.25848,6.64693c0,4.14026-2.59778,6.93246-7.57611,6.93246h-5.24524v4.28841
				c0,0.42863,0.07703,5.03352,0.08911,5.66454c0.0116,0.63089,0.02997,1.12547,0.05347,1.48288h-2.42975
				c0.02356-0.35741,0.04144-0.85199,0.05334-1.48288c0.01208-0.63101,0.08966-5.2359,0.08966-5.66454V192.02179z
				 M621.52148,191.52191c0-3.20818-2.58173-4.71704-5.13165-4.71704h-5.54547v9.72012h5.24524
				C618.98157,196.52499,621.52148,195.14455,621.52148,191.52191z"/>
			<path class="st12" d="M628.42279,192.02179c0-0.49988-0.00629-1.08357-0.01788-1.7502
				c-0.01257-0.66748-0.02405-1.34039-0.03613-2.01947s0.02045-3.01923-0.00317-3.37714h7.7641
				c4.11823,0,7.25848,2.56015,7.25848,6.64693c0,4.14026-2.59772,6.93246-7.57593,6.93246h-5.2453v4.28841
				c0,0.42863,0.07703,5.03352,0.08911,5.66454c0.01147,0.63089,0.02985,1.12547,0.05334,1.48288h-2.42975
				c0.02356-0.35741,0.04144-0.85199,0.05353-1.48288c0.01208-0.63101,0.0896-5.2359,0.0896-5.66454V192.02179z
				 M641.24396,191.52191c0-3.20818-2.5816-4.71704-5.13153-4.71704h-5.54547v9.72012h5.2453
				C638.70404,196.52499,641.24396,195.14455,641.24396,191.52191z"/>
			<path class="st12" d="M671.33289,197.49025c0,8.06644-6.6261,12.39995-14.00867,12.39995h-7.46967
				c0.0235-0.49988,0.04138-1.15492,0.05347-1.96501c0.01196-0.81007,0.0896-4.20459,0.0896-5.1824v-10.72099
				c0-1.07211-0.07764-4.6447-0.0896-5.43173c-0.01208-0.78606-0.02997-1.35716-0.05347-1.71507h7.43408
				C665.98114,184.87498,671.33289,190.09659,671.33289,197.49025z M666.9353,197.06789c0-4.08727-2.69794-8.11661-10.71991-8.11661
				h-1.92719v16.86311h1.96283C664.57489,205.81439,666.9353,201.69582,666.9353,197.06789z"/>
			<path class="st12" d="M705.67529,191.74879c0,0.92963,0.01208,1.8833,0.03564,2.8589c0,0.85838,0.0058,1.81723,0.01837,2.87675
				c0.01147,1.06064,0.02307,6.31725,0.03558,6.98375c0.01147,0.6665,0.02307,1.34557,0.03564,2.03622
				c0.0116,0.69165,0.02356,1.35298,0.03564,1.98387c0.01154,0.63087,0.02979,1.12558,0.05347,1.48286h-4.57629
				c0.02362-0.35728,0.04138-0.85199,0.05347-1.48286c0.01208-0.63089,0.05927-3.35359,0.07184-4.0201
				c0.01147-0.6665,0.01776-12.32971,0.01776-12.32971c0-1.5721-0.01257-2.98373-0.03607-4.23392
				c-0.02368-1.2513-0.05981-2.23331-0.10699-2.94861h4.39758l14.25641,18.22186c-0.02368-0.76189-0.03528-1.36702-0.03528-2.31969
				c-0.02417-0.81009-0.03613-4.2417-0.03613-5.50557c0,0-0.07751-8.28224-0.08899-8.91312
				c-0.01257-0.63089-0.0304-1.1256-0.05396-1.48349h4.57666c-0.02405,0.35789-0.04193,0.8526-0.05396,1.48349
				c-0.01196,0.63087-0.02356,1.29221-0.03564,1.98274c-0.01208,0.69177-0.05334,14.36606-0.05334,14.36606
				c0,1.57198,0.01141,2.98361,0.03558,4.23491c0.02356,1.25032,0.05914,2.23331,0.10736,2.948h-4.39807L705.67529,191.74879z"/>
			<path class="st12" d="M771.07166,210.54338l-8.83655-19.61218l-1.84723,11.89267
				c-0.26251,1.47771-0.48248,2.87148-0.66119,4.18155c-0.17871,1.30997-0.29187,2.29924-0.33954,2.96574h-4.755
				c0.34265-1.3165,0.52356-2.04253,0.71484-3.1272c0.19012-1.08356,0.42859-2.42395,0.71466-4.0201l2.17981-12.3287
				c0.19031-1.1675,0.35742-2.20287,0.50049-3.10933c0.14301-0.90448,0.24994-1.71457,0.32166-2.42987h4.56879
				c0.09479,0.35789,0.48041,1.32733,0.84082,2.30145c0.18842,0.509,6.59845,15.00348,6.74152,15.38492
				c0.16663-0.40559,6.27179-13.25058,6.67963-14.1033c0.44379-0.92815,1.2652-2.57802,1.68127-3.58307h4.57678
				c0,0.21431,0.01776,0.58948,0.05341,1.12607c0.03571,0.53551,0.35107,4.24651,0.37524,4.41313l1.50122,12.3287
				c0.04712,0.45268,0.62512,4.81873,0.7326,5.44962c0.10681,0.63187,0.20801,1.1978,0.30341,1.69768h-4.68378
				c-0.02405-0.49988-0.06543-1.06581-0.12457-1.69768c-0.05981-0.63089-0.50677-4.99693-0.55402-5.44962l-1.18793-11.44554
				L771.07166,210.54338z"/>
			<path class="st12" d="M794.80109,192.10287c0-0.5-0.07758-5.09232-0.0896-5.69905
				c-0.01208-0.60783-0.02997-1.08997-0.05353-1.44786h4.57629c-0.02362,0.35789-0.04199,0.84003-0.05347,1.44786
				c-0.01208,0.60674-0.08911,5.19905-0.08911,5.69905v10.72099c0,0.42865,0.07703,5.03354,0.08911,5.66443
				c0.01147,0.63087,0.02985,1.12558,0.05347,1.48286h-4.57629c0.02356-0.35728,0.04144-0.85199,0.05353-1.48286
				c0.01202-0.63089,0.0896-5.23578,0.0896-5.66443V192.10287z"/>
			<path class="st12" d="M697.34479,184.85835h-5.03033c-0.43604,1.14677-7.65436,11.60391-7.65436,11.60391
				s-7.26917-10.38997-7.7052-11.60391h-5.04706c0.14294,0.21481,7.23676,11.15234,10.58936,16.27498v1.60945
				c0,0.42863-0.07751,5.03365-0.0896,5.66454s-0.02985,1.12547-0.05347,1.48288h4.57629
				c-0.02368-0.35741-0.04193-0.85199-0.05353-1.48288c-0.01208-0.63089-0.08911-5.2359-0.08911-5.66454v-1.72838
				C690.1532,195.94069,696.95398,185.47174,697.34479,184.85835z"/>
			<path class="st12" d="M826.64423,208.75659c-2.47144,1.17772-4.32031,1.92938-8.18329,1.92938
				c-9.05951,0-13.25818-7.2794-13.25818-13.25821c0-5.96008,4.28815-13.18649,13.25818-13.18649
				c4.08667,0,6.1283,1.00801,7.79028,1.82301v4.7905c-2.91327-1.64555-4.37445-2.46599-7.79028-2.46599
				c-4.49866,0-8.86072,2.49767-8.86072,9.03897c0,6.82832,4.98816,9.11006,8.86072,9.11006
				c3.50531,0,6.45654-1.38736,8.18329-2.64407V208.75659z"/>
			<path class="st12" d="M840.35315,196.14084c3.25671,1.60883,6.58099,3.55437,6.58099,7.71951
				c0,2.98917-2.41077,6.68303-8.22015,6.68303c-3.45465,0-6.2901-1.48497-7.5069-2.03032v-4.66478
				c1.26154,0.69398,3.96881,2.61832,7.5069,2.61832c1.94849,0,3.92938-0.82439,3.92938-2.59897
				c0-3.59108-5.17206-4.6235-7.63446-6.11797c-2.25092-1.36603-3.80182-2.59724-3.80182-6.35495
				c0-3.57062,3.15039-7.01036,8.1048-7.01036c2.91528,0,5.37787,0.57431,6.80316,1.35815v4.57567
				c-2.32288-1.48003-3.84314-1.92938-6.66022-1.92938c-1.65442,0-3.95715,1.26868-3.95715,2.94295
				C835.49768,194.31732,837.57092,194.76643,840.35315,196.14084z"/>
		</g>
	</g>
	<text transform="matrix(1 0 0 1 1265 709.05261)" class="st23 st24 st14">Version 4.3.0.0, build null</text>
</g>
</svg>